<svg xmlns="http://www.w3.org/2000/svg" viewBox="0 0 200 200"><rect width="200" height="200" rx="50" ry="50" fill="#004197"/><path d="M102.528-58.368L102.912-69.888L116.544-69.504L116.736-78.336L101.760-77.568L101.376-88.704L117.120-89.280L117.504-97.920L99.456-96.192L97.152-107.520L117.888-109.632L119.232-153.408L134.592-152.832L133.824-133.248L161.280-135.168L141.120-144.192L147.072-153.984L169.152-144.960L163.584-135.360L177.216-136.320L178.176-122.880L133.248-119.424L132.864-111.168L174.528-115.200L163.200-56.640L102.528-58.368ZM39.360 7.872L36.096-150.528L51.264-151.104L52.224-105.600L71.616-107.328L72.768-92.352L52.416-90.624L54.528 7.296L39.360 7.872ZM72.384-114.816L71.040-128.640L111.744-131.328L111.168-117.888L72.384-114.816ZM85.632-52.032L75.840-107.712L90.432-110.592L100.224-54.912L85.632-52.032ZM12.480-87.168L11.136-102.144L31.296-103.680L31.488-88.896L12.480-87.168ZM156.864-101.760L132.288-99.456L131.904-89.856L154.944-90.816L156.864-101.760ZM153.024-79.872L131.520-78.912L131.136-69.120L151.104-68.544L153.024-79.872ZM116.352 4.224L118.272-7.104L133.824-5.184L136.128-52.992L151.872-52.608L151.680-47.616L181.632-49.728L182.208-35.712L151.104-33.792L149.184 13.056L116.352 4.224ZM66.816-28.608L66.240-42.624L129.792-46.272L129.216-32.256L66.816-28.608ZM83.712-19.200L91.008-29.952L116.928-17.472L109.824-5.568L83.712-19.200ZM331.968-106.560L343.104-125.184L238.656-117.120L237.504-131.520L279.936-134.592L273.600-151.104L288.576-156.480L296.448-135.744L369.984-141.312L345.216-99.072L331.968-106.560ZM213.120-94.656L219.264-139.200L235.008-137.472L229.056-92.736L213.120-94.656ZM336-45.120L323.712 6.144L274.176 3.264L274.752-10.752L311.616-8.832L316.992-32.832L270.912-29.568L269.376-43.200L329.280-47.424L258.048-72.576L264.384-84.864L283.392-78.528L313.920-95.424L279.360-91.584L276.096-103.872L237.504-64.704L225.600-73.344L269.376-117.888L282.624-110.400L277.248-105.024L326.592-109.248L336-93.504L300.480-72.768L373.248-48.960L366.144-34.368L336-45.120ZM254.400 10.176L245.952-40.512L220.032-25.536L210.432-37.824L260.736-65.664L277.824-59.136L247.872-41.664L261.504-44.160L270.144 7.488L254.400 10.176Z" fill="#fff" transform="translate(63.808000564575195, 327.71199798583984)"/></svg>
