<svg xmlns="http://www.w3.org/2000/svg" viewBox="0 0 512 512"><rect width="512" height="512" rx="50" ry="50" fill="#004197"/><path d="M15.264 2.304L10.800-97.344L87.408-102.096L88.272-90.144L24.480-86.112L28.512-10.944L79.776-16.128L77.472-47.376L47.088-47.376L47.088-60.048L89.280-60.192L93.600-5.184L15.264 2.304ZM112.464-86.544L112.464-103.248L129.168-103.248L129.168-86.544L112.464-86.544ZM114.480 3.024L114.480-73.440L127.008-73.440L127.008 3.024L114.480 3.024ZM158.400 3.744L158.400-58.896L142.416-57.456L141.408-69.120L158.400-70.704L158.400-99.216L170.928-99.216L170.928-71.712L190.080-73.440L191.088-61.776L170.928-60.048L170.928-9.504L188.640-11.952L189.648 0L158.400 3.744ZM276.624 3.168L276.624-50.400L224.352-46.656L223.488-59.040L276.624-62.496L276.480-102.960L289.728-102.960L289.728 3.168L276.624 3.168ZM206.784 3.168L203.904-102.960L217.152-102.960L219.888 3.168L206.784 3.168ZM318.528 4.176L311.040-73.440L323.856-74.880L330.048-8.928L350.352-12.240L351.648 0L318.528 4.176ZM356.544 3.456L359.424-74.448L371.952-74.304L369.072 3.600L356.544 3.456ZM414.576-0.144L416.016-11.952L434.736-9.936L439.488-60.192L406.656-62.208L408.240 3.024L395.712 3.024L392.976-110.016L405.504-110.016L406.368-73.728L452.736-70.992L446.112 2.736L414.576-0.144Z" fill="#fff" transform="translate(24.2319974899292, 308.91999435424805)"/></svg>
