<svg xmlns="http://www.w3.org/2000/svg" viewBox="0 0 512 512"><rect width="512" height="512" rx="50" ry="50" fill="#004197"/><path d="M16.560-4.032L18.864-13.104L33.408-10.512L34.128-37.728L17.424-27.936L11.664-38.592L34.416-51.264L35.856-112.032L48.096-111.888L47.520-85.680L63.216-87.984L64.944-76.464L47.232-73.872L46.944-58.320L63.216-67.392L68.832-58.032L46.656-45.072L45.504 6.192L16.560-4.032ZM69.408-83.232L68.400-95.184L135.216-100.944L136.368-89.424L69.408-83.232ZM13.392-68.832L11.664-80.352L30.960-83.232L30.672-71.424L13.392-68.832ZM75.744-1.152L77.904-10.800L96.624-7.632L98.784-81.648L111.744-81.216L109.152 9.360L75.744-1.152ZM251.856-77.904L258.480-90.864L177.984-85.824L177.120-95.472L191.520-96.336L180.000-106.992L187.056-113.328L200.592-101.664L195.696-96.480L209.952-97.344L208.080-116.064L219.744-117.360L221.616-98.064L235.008-98.784L229.968-103.248L242.928-117.072L250.416-111.312L238.752-98.928L275.904-101.088L262.224-73.584L251.856-77.904ZM158.832-70.272L162.576-100.944L174.096-100.080L170.352-69.408L158.832-70.272ZM200.448-61.344L200.880-69.408L233.280-68.256L235.584-76.320L200.304-73.296L198.000-81.360L249.408-85.392L241.488-59.328L200.448-61.344ZM187.632-56.448L182.448-81.936L192.960-84.096L198.288-58.608L187.632-56.448ZM197.280-11.952L197.568-19.872L239.904-18.144L240.624-24.768L196.560-23.616L196.416-30.240L241.488-31.536L242.208-37.152L195.984-34.272L195.120-40.896L243.072-43.920L243.792-49.392L193.824-44.640L192.096-52.704L256.752-58.896L249.408-9.648L197.280-11.952ZM183.456-7.776L176.688-53.280L187.920-55.008L194.544-9.792L183.456-7.776ZM173.520 9.936L168.336 1.296L206.208-10.800L211.392-3.456L173.520 9.936ZM224.496-2.448L229.392-10.080L266.256 1.008L260.640 9.936L224.496-2.448Z" fill="#fff" transform="translate(112.21600532531738, 309.71199798583984)"/></svg>
